<svg width="16" height="14" viewBox="0 0 16 14" fill="none" xmlns="http://www.w3.org/2000/svg">
    <path d="M8.75487 1.26592e-06C9.80489 -0.000630395 10.8416 0.235133 11.7881 0.689806C12.7345 1.14448 13.5665 1.8064 14.2223 2.62646H3.28745C3.94323 1.8064 4.7752 1.14448 5.72168 0.689806C6.66816 0.235133 7.70485 -0.000630395 8.75487 1.26592e-06ZM14.8833 7.87939H15.7045C15.4798 9.6455 14.591 11.2598 13.2188 12.3941C11.8466 13.5284 10.094 14.0977 8.3171 13.9862C6.54025 13.8748 4.87251 13.0909 3.65287 11.7939C2.43322 10.497 1.75318 8.78425 1.75097 7.0039H2.62646V7.87939H3.50195V8.75487H8.75487V7.87939H9.63036V8.75487H14.8833V7.87939ZM5.41489 10.0156C5.32471 10.0886 5.26723 10.1945 5.25508 10.3099C5.24294 10.4253 5.27711 10.5408 5.3501 10.631C5.76048 11.1388 6.27922 11.5483 6.86834 11.8296C7.45746 12.1109 8.10204 12.2569 8.75487 12.2568C10.1294 12.2568 11.3577 11.6221 12.1596 10.631C12.1958 10.5863 12.2228 10.5349 12.2391 10.4798C12.2554 10.4246 12.2606 10.3668 12.2546 10.3096C12.2485 10.2524 12.2313 10.197 12.2038 10.1464C12.1763 10.0959 12.1391 10.0513 12.0944 10.0151C12.0497 9.97898 11.9983 9.95198 11.9431 9.93569C11.888 9.9194 11.8301 9.91413 11.773 9.92019C11.7158 9.92625 11.6603 9.94351 11.6098 9.97099C11.5593 9.99847 11.5147 10.0356 11.4785 10.0804C11.1503 10.4866 10.7353 10.8142 10.2641 11.0394C9.79279 11.2645 9.27714 11.3813 8.75487 11.3813C8.2326 11.3813 7.71696 11.2645 7.24569 11.0394C6.77443 10.8142 6.35948 10.4866 6.03123 10.0804C5.99505 10.0356 5.9504 9.99838 5.89982 9.97089C5.84925 9.94339 5.79375 9.92614 5.7365 9.92012C5.67925 9.9141 5.62137 9.91944 5.56619 9.93582C5.511 9.9522 5.45959 9.9793 5.41489 10.0156ZM15.7588 3.50195H2.62646V4.37744H1.75097V5.25292H0.875487V6.12841H0V7.87939H0.875487V6.12841H1.75097V5.25292H3.50195V7.0039H4.37744V7.87939H7.87938V7.0039H8.75487V5.25292H9.63036V7.0039H10.5058V7.87939H14.0078V7.0039H14.8833V5.25292H15.7588V3.50195ZM5.25292 5.25292V6.12841H6.12841V7.0039H5.25292V6.12841H4.37744V5.25292H5.25292ZM11.3813 5.25292V6.12841H12.2568V7.0039H11.3813V6.12841H10.5058V5.25292H11.3813Z" fill="#121212"/>
</svg>
