<svg width="15" height="20" viewBox="0 0 15 20" fill="none" xmlns="http://www.w3.org/2000/svg">
    <path fill-rule="evenodd" clip-rule="evenodd" d="M8.48959 1.01266C8.48959 0.744085 8.38536 0.486511 8.19984 0.296601C8.01431 0.10669 7.76269 0 7.50032 0C7.23795 0 6.98632 0.10669 6.8008 0.296601C6.61527 0.486511 6.51104 0.744085 6.51104 1.01266V1.77215H5.96002C4.89955 1.77208 3.87891 2.18571 3.10589 2.92885C2.33287 3.67198 1.86557 4.68875 1.79914 5.77215L1.58051 9.35089C1.49714 10.7154 1.04956 12.0303 0.286539 13.1524C0.128882 13.3844 0.0325503 13.6541 0.00691357 13.9355C-0.0187232 14.2169 0.0272072 14.5002 0.140238 14.758C0.253268 15.0158 0.429552 15.2393 0.651944 15.4067C0.874337 15.5742 1.13527 15.6798 1.40936 15.7134L4.77982 16.1266V17.2152C4.77982 17.9538 5.06644 18.6621 5.57663 19.1843C6.08682 19.7066 6.7788 20 7.50032 20C8.22184 20 8.91381 19.7066 9.424 19.1843C9.93419 18.6621 10.2208 17.9538 10.2208 17.2152V16.1266L13.5913 15.7124C13.8652 15.6787 14.126 15.573 14.3482 15.4057C14.5705 15.2383 14.7467 15.015 14.8597 14.7573C14.9727 14.4997 15.0187 14.2165 14.9931 13.9353C14.9676 13.654 14.8715 13.3844 14.7141 13.1524C13.951 12.0303 13.5034 10.7154 13.4201 9.35089L13.2015 5.77316C13.1353 4.68958 12.6681 3.67256 11.8951 2.92922C11.122 2.18587 10.1012 1.7721 9.04062 1.77215H8.48959V1.01266ZM6.26373 17.2152C6.26373 17.5509 6.39401 17.8729 6.62592 18.1103C6.85782 18.3477 7.17235 18.481 7.50032 18.481C7.82828 18.481 8.14281 18.3477 8.37472 18.1103C8.60662 17.8729 8.73691 17.5509 8.73691 17.2152V16.4557H6.26373V17.2152Z" fill="#121212"/>
</svg>
