<svg width="13" height="16" viewBox="0 0 13 16" fill="none" xmlns="http://www.w3.org/2000/svg">
    <path d="M12.2667 0H9.8C9.60551 0 9.41898 0.0772617 9.28146 0.214788C9.14393 0.352315 9.06667 0.538841 9.06667 0.733333C9.06667 0.927825 9.14393 1.11435 9.28146 1.25188C9.41898 1.38941 9.60551 1.46667 9.8 1.46667H10.4963L9.25967 2.703C8.76606 2.12687 8.15359 1.66442 7.46432 1.34744C6.77505 1.03045 6.02533 0.866438 5.26667 0.866667C2.36267 0.866667 0 3.22933 0 6.13333C0 8.78867 1.97533 10.9907 4.53333 11.3487V12.6H3.6C3.40551 12.6 3.21898 12.6773 3.08146 12.8148C2.94393 12.9523 2.86667 13.1388 2.86667 13.3333C2.86667 13.5278 2.94393 13.7144 3.08146 13.8519C3.21898 13.9894 3.40551 14.0667 3.6 14.0667H4.53333V15.2667C4.53333 15.4612 4.6106 15.6477 4.74812 15.7852C4.88565 15.9227 5.07218 16 5.26667 16C5.46116 16 5.64769 15.9227 5.78521 15.7852C5.92274 15.6477 6 15.4612 6 15.2667V14.0667H6.93333C7.12783 14.0667 7.31435 13.9894 7.45188 13.8519C7.58941 13.7144 7.66667 13.5278 7.66667 13.3333C7.66667 13.1388 7.58941 12.9523 7.45188 12.8148C7.31435 12.6773 7.12783 12.6 6.93333 12.6H6V11.3487C8.558 10.9907 10.5333 8.78867 10.5333 6.13333C10.5337 5.38699 10.3746 4.64919 10.0667 3.96933L11.5333 2.50267V3.2C11.5333 3.39449 11.6106 3.58102 11.7481 3.71855C11.8856 3.85607 12.0722 3.93333 12.2667 3.93333C12.4612 3.93333 12.6477 3.85607 12.7852 3.71855C12.9227 3.58102 13 3.39449 13 3.2V0.733333C13 0.538841 12.9227 0.352315 12.7852 0.214788C12.6477 0.0772617 12.4612 0 12.2667 0ZM5.26667 9.93333C4.5151 9.93333 3.78041 9.71047 3.1555 9.29292C2.53059 8.87537 2.04354 8.28189 1.75592 7.58753C1.46831 6.89317 1.39306 6.12912 1.53968 5.39199C1.68631 4.65486 2.04822 3.97777 2.57966 3.44633C3.1111 2.91489 3.7882 2.55297 4.52532 2.40635C5.26245 2.25973 6.0265 2.33498 6.72086 2.62259C7.41522 2.9102 8.0087 3.39726 8.42625 4.02217C8.8438 4.64707 9.06667 5.38176 9.06667 6.13333C9.06552 7.1408 8.6648 8.10668 7.95241 8.81907C7.24002 9.53146 6.27414 9.93219 5.26667 9.93333Z" fill="#121212"/>
</svg>
