<svg width="20" height="20" viewBox="0 0 20 20" fill="none" xmlns="http://www.w3.org/2000/svg">
    <path d="M7.91634 3.33333H12.083C12.083 2.7808 11.8635 2.2509 11.4728 1.86019C11.0821 1.46949 10.5522 1.25 9.99967 1.25C9.44714 1.25 8.91724 1.46949 8.52654 1.86019C8.13583 2.2509 7.91634 2.7808 7.91634 3.33333ZM6.66634 3.33333C6.66634 2.44928 7.01753 1.60143 7.64265 0.976311C8.26777 0.35119 9.11562 0 9.99967 0C10.8837 0 11.7316 0.35119 12.3567 0.976311C12.9818 1.60143 13.333 2.44928 13.333 3.33333H18.5413C18.7071 3.33333 18.8661 3.39918 18.9833 3.51639C19.1005 3.6336 19.1663 3.79257 19.1663 3.95833C19.1663 4.12409 19.1005 4.28306 18.9833 4.40028C18.8661 4.51749 18.7071 4.58333 18.5413 4.58333H17.4497L16.4355 16.7525C16.3617 17.6378 15.958 18.463 15.3043 19.0645C14.6506 19.666 13.7947 19.9999 12.9063 20H7.09301C6.20467 19.9999 5.34879 19.666 4.69509 19.0645C4.0414 18.463 3.63763 17.6378 3.56384 16.7525L2.54967 4.58333H1.45801C1.29225 4.58333 1.13328 4.51749 1.01607 4.40028C0.898856 4.28306 0.833008 4.12409 0.833008 3.95833C0.833008 3.79257 0.898856 3.6336 1.01607 3.51639C1.13328 3.39918 1.29225 3.33333 1.45801 3.33333H6.66634ZM8.74967 8.125C8.74967 7.95924 8.68383 7.80027 8.56662 7.68306C8.44941 7.56585 8.29044 7.5 8.12467 7.5C7.95891 7.5 7.79994 7.56585 7.68273 7.68306C7.56552 7.80027 7.49967 7.95924 7.49967 8.125V15.2083C7.49967 15.3741 7.56552 15.5331 7.68273 15.6503C7.79994 15.7675 7.95891 15.8333 8.12467 15.8333C8.29044 15.8333 8.44941 15.7675 8.56662 15.6503C8.68383 15.5331 8.74967 15.3741 8.74967 15.2083V8.125ZM11.8747 7.5C11.7089 7.5 11.5499 7.56585 11.4327 7.68306C11.3155 7.80027 11.2497 7.95924 11.2497 8.125V15.2083C11.2497 15.3741 11.3155 15.5331 11.4327 15.6503C11.5499 15.7675 11.7089 15.8333 11.8747 15.8333C12.0404 15.8333 12.1994 15.7675 12.3166 15.6503C12.4338 15.5331 12.4997 15.3741 12.4997 15.2083V8.125C12.4997 7.95924 12.4338 7.80027 12.3166 7.68306C12.1994 7.56585 12.0404 7.5 11.8747 7.5Z" fill="#8A8A8E"/>
</svg>
