<svg width="12" height="16" viewBox="0 0 12 16" fill="none" xmlns="http://www.w3.org/2000/svg">
    <path d="M0 2.5C0 1.83696 0.263392 1.20107 0.732233 0.732233C1.20107 0.263392 1.83696 0 2.5 0H9.5C10.163 0 10.7989 0.263392 11.2678 0.732233C11.7366 1.20107 12 1.83696 12 2.5V12.6667C12 12.9319 11.8946 13.1862 11.7071 13.3738C11.5196 13.5613 11.2652 13.6667 11 13.6667H1.00933C1.05033 14.0333 1.22503 14.372 1.50003 14.618C1.77503 14.864 2.13104 15 2.5 15H11.5C11.6326 15 11.7598 15.0527 11.8536 15.1464C11.9473 15.2402 12 15.3674 12 15.5C12 15.6326 11.9473 15.7598 11.8536 15.8536C11.7598 15.9473 11.6326 16 11.5 16H2.5C1.83696 16 1.20107 15.7366 0.732233 15.2678C0.263392 14.7989 0 14.163 0 13.5V2.5ZM7.66667 5C7.66667 4.55797 7.49107 4.13405 7.17851 3.82149C6.86595 3.50893 6.44203 3.33333 6 3.33333C5.55797 3.33333 5.13405 3.50893 4.82149 3.82149C4.50893 4.13405 4.33333 4.55797 4.33333 5C4.33333 5.44203 4.50893 5.86595 4.82149 6.17851C5.13405 6.49107 5.55797 6.66667 6 6.66667C6.44203 6.66667 6.86595 6.49107 7.17851 6.17851C7.49107 5.86595 7.66667 5.44203 7.66667 5ZM9 8.58333V8.51467C9 7.862 8.47067 7.33333 7.818 7.33333H4.182C3.52867 7.33333 3 7.862 3 8.51467V8.58333C3 9.62467 3.85733 10.6667 6 10.6667C8.14267 10.6667 9 9.62067 9 8.58333Z" fill="#121212"/>
</svg>
