<svg width="18" height="20" viewBox="0 0 18 20" fill="none" xmlns="http://www.w3.org/2000/svg">
    <path fill-rule="evenodd" clip-rule="evenodd" d="M12.976 13.2534C12.5109 13.2534 12.054 13.3757 11.6511 13.6081C11.2482 13.8406 10.9136 14.1749 10.6809 14.5776C10.4481 14.9803 10.3255 15.4372 10.3252 15.9023C10.3249 16.3674 10.4469 16.8244 10.6792 17.2274L14.2994 13.6071C13.8972 13.3747 13.4406 13.2526 12.976 13.2534ZM15.3086 14.6433L11.7153 18.2365C12.2175 18.5087 12.7943 18.6113 13.3595 18.5291C13.9248 18.4469 14.4484 18.1843 14.8524 17.7803C15.2563 17.3764 15.5189 16.8528 15.6011 16.2875C15.6833 15.7222 15.5807 15.1455 15.3086 14.6433ZM8.87964 15.904C8.87964 15.3661 8.98559 14.8334 9.19146 14.3364C9.39732 13.8394 9.69906 13.3878 10.0794 13.0074C10.4598 12.627 10.9114 12.3253 11.4084 12.1194C11.9054 11.9136 12.4381 11.8076 12.976 11.8076C13.514 11.8076 14.0466 11.9136 14.5436 12.1194C15.0406 12.3253 15.4922 12.627 15.8726 13.0074C16.253 13.3878 16.5547 13.8394 16.7606 14.3364C16.9665 14.8334 17.0724 15.3661 17.0724 15.904C17.0724 16.9904 16.6408 18.0324 15.8726 18.8006C15.1044 19.5688 14.0625 20.0004 12.976 20.0004C11.8896 20.0004 10.8477 19.5688 10.0794 18.8006C9.31122 18.0324 8.87964 16.9904 8.87964 15.904Z" fill="black"/>
    <path d="M12.494 3.85542C12.494 4.87794 12.0878 5.85858 11.3648 6.58162C10.6417 7.30465 9.6611 7.71084 8.63858 7.71084C7.61606 7.71084 6.63541 7.30465 5.91238 6.58162C5.18935 5.85858 4.78316 4.87794 4.78316 3.85542C4.78316 2.8329 5.18935 1.85226 5.91238 1.12923C6.63541 0.406195 7.61606 0 8.63858 0C9.6611 0 10.6417 0.406195 11.3648 1.12923C12.0878 1.85226 12.494 2.8329 12.494 3.85542ZM10.8506 10.7836C10.0659 11.1097 9.36673 11.6118 8.80697 12.2511C8.24721 12.8904 7.84189 13.6498 7.62233 14.4707C7.40276 15.2916 7.37482 16.1519 7.54067 16.9853C7.70652 17.8187 8.06171 18.6028 8.57882 19.2771C0.927734 19.2675 0.927734 17.3292 0.927734 14.9398C0.927734 12.5446 4.38026 10.6024 8.63858 10.6024C9.40773 10.6024 10.1499 10.666 10.8506 10.7836Z" fill="black"/>
</svg>
