<svg width="16" height="16" viewBox="0 0 16 16" fill="none" xmlns="http://www.w3.org/2000/svg">
    <path d="M10.8094 0.0229734C10.9212 0.0601127 11.0137 0.140161 11.0666 0.245513C11.1194 0.350865 11.1283 0.472892 11.0911 0.584756L10.6467 1.9181C10.6094 2.03008 10.5292 2.12268 10.4237 2.17552C10.3182 2.22837 10.196 2.23713 10.084 2.19988C9.97203 2.16263 9.87943 2.08243 9.82659 1.9769C9.77375 1.87138 9.76498 1.74919 9.80223 1.63721L10.2467 0.303865C10.2652 0.248457 10.2944 0.197234 10.3327 0.153124C10.3709 0.109015 10.4175 0.0728832 10.4698 0.046796C10.5221 0.0207089 10.5789 0.00517753 10.6372 0.00108985C10.6955 -0.00299783 10.754 0.00443839 10.8094 0.0229734ZM14.0956 1.64788C14.1369 1.60655 14.1696 1.55751 14.1919 1.50354C14.2142 1.44957 14.2257 1.39174 14.2256 1.33334C14.2256 1.27494 14.214 1.21712 14.1917 1.16318C14.1693 1.10925 14.1365 1.06025 14.0952 1.01898C14.0538 0.977717 14.0048 0.944996 13.9508 0.922686C13.8969 0.900376 13.839 0.888915 13.7806 0.888956C13.7222 0.888997 13.6644 0.90054 13.6105 0.922926C13.5565 0.945313 13.5075 0.978103 13.4663 1.01943L11.6885 2.79722C11.6075 2.88104 11.5627 2.99331 11.5637 3.10984C11.5647 3.22638 11.6115 3.33785 11.6939 3.42026C11.7763 3.50266 11.8878 3.5494 12.0043 3.55041C12.1208 3.55143 12.2331 3.50663 12.3169 3.42567L14.0956 1.64788ZM4.98619 1.90743C5.11019 1.6463 5.296 1.41935 5.52751 1.24624C5.75902 1.07313 6.02926 0.95909 6.3148 0.913996C6.60033 0.868902 6.89256 0.894117 7.16615 0.987456C7.43974 1.0808 7.68645 1.23944 7.88488 1.44965L13.74 7.65415C13.9354 7.86116 14.0783 8.11207 14.1565 8.38576C14.2347 8.65946 14.2461 8.94794 14.1897 9.22695C14.1332 9.50596 14.0106 9.76733 13.8321 9.98909C13.6537 10.2108 13.4245 10.3865 13.164 10.5013L9.66445 12.0444C9.79418 12.5071 9.8151 12.9935 9.72558 13.4656C9.63607 13.9377 9.43853 14.3827 9.14844 14.7657C8.85835 15.1488 8.48357 15.4595 8.05341 15.6736C7.62325 15.8878 7.14938 15.9995 6.66887 16C6.13932 16.0001 5.61849 15.8651 5.15573 15.6076C4.69296 15.3502 4.30356 14.9789 4.02441 14.5289L2.95773 14.9991C2.7126 15.107 2.44065 15.1387 2.1773 15.0898C1.91394 15.041 1.67141 14.914 1.48127 14.7253L0.395042 13.6498C0.198629 13.4552 0.0675444 13.2044 0.0199281 12.9321C-0.0276882 12.6598 0.0105189 12.3794 0.129262 12.1297L4.98619 1.90743ZM4.8493 14.1644C5.14432 14.5856 5.57627 14.8914 6.07152 15.0298C6.56678 15.1681 7.09468 15.1304 7.56526 14.9231C8.03584 14.7158 8.41997 14.3518 8.65217 13.893C8.88438 13.4342 8.95029 12.909 8.83867 12.4071L4.8493 14.1644ZM13.3356 4.44434C13.2177 4.44434 13.1047 4.49117 13.0213 4.57452C12.938 4.65787 12.8911 4.77092 12.8911 4.88879C12.8911 5.00667 12.938 5.11972 13.0213 5.20307C13.1047 5.28642 13.2177 5.33324 13.3356 5.33324H14.6689C14.7868 5.33324 14.8999 5.28642 14.9832 5.20307C15.0666 5.11972 15.1134 5.00667 15.1134 4.88879C15.1134 4.77092 15.0666 4.65787 14.9832 4.57452C14.8999 4.49117 14.7868 4.44434 14.6689 4.44434H13.3356Z" fill="#121212"/>
</svg>
