<svg width="19" height="18" viewBox="0 0 19 18" fill="none" xmlns="http://www.w3.org/2000/svg">
<path d="M4.98462 1.00892C5.15449 0.703146 5.40305 0.448359 5.70453 0.270962C6.006 0.093565 6.34943 1.30601e-05 6.69923 0H9.91615C10.266 1.30601e-05 10.6094 0.093565 10.9109 0.270962C11.2123 0.448359 11.4609 0.703146 11.6308 1.00892L12.2243 2.07692H13.9615C14.6654 2.07692 15.3404 2.35652 15.8381 2.85422C16.3358 3.35191 16.6154 4.02693 16.6154 4.73077V7.86646C15.6512 7.24878 14.5297 6.92131 13.3846 6.92308C12.8395 6.92308 12.3111 6.996 11.8089 7.13215C11.6039 6.52222 11.243 5.97646 10.7621 5.54897C10.2811 5.12147 9.69684 4.82708 9.06707 4.69498C8.43731 4.56288 7.78395 4.59766 7.17177 4.79586C6.55958 4.99406 6.00982 5.3488 5.57698 5.82493C5.14413 6.30106 4.84323 6.88204 4.7041 7.51029C4.56497 8.13854 4.59244 8.79224 4.78378 9.4066C4.97513 10.021 5.3237 10.5747 5.79497 11.0128C6.26623 11.4509 6.84381 11.7583 7.47046 11.9045C7.27956 13.0263 7.40914 14.1793 7.84431 15.2308H2.65385C1.95 15.2308 1.27499 14.9512 0.777294 14.4535C0.279601 13.9558 0 13.2808 0 12.5769V4.73077C0 4.02693 0.279601 3.35191 0.777294 2.85422C1.27499 2.35652 1.95 2.07692 2.65385 2.07692H4.39154L4.98462 1.00892ZM8.30769 5.76923C7.68024 5.76835 7.07469 5.99989 6.60789 6.41916C6.14109 6.83844 5.84611 7.41575 5.77986 8.03969C5.71362 8.66364 5.88081 9.29001 6.24917 9.79796C6.61753 10.3059 7.16096 10.6594 7.77462 10.7903C8.31536 9.37428 9.37013 8.2142 10.7285 7.54154C10.5656 7.02723 10.2432 6.57816 9.80792 6.25949C9.37265 5.94081 8.84716 5.76908 8.30769 5.76923ZM13.3846 18C16.1885 18 18.4615 15.7269 18.4615 12.9231C18.4615 10.1192 16.1885 7.84615 13.3846 7.84615C10.5808 7.84615 8.30769 10.1192 8.30769 12.9231C8.30769 15.7269 10.5808 18 13.3846 18ZM13.3846 9.69231C13.507 9.69231 13.6244 9.74093 13.711 9.82749C13.7975 9.91404 13.8462 10.0314 13.8462 10.1538V12.4615H16.1538C16.2763 12.4615 16.3936 12.5102 16.4802 12.5967C16.5668 12.6833 16.6154 12.8007 16.6154 12.9231C16.6154 13.0455 16.5668 13.1629 16.4802 13.2494C16.3936 13.336 16.2763 13.3846 16.1538 13.3846H13.8462V15.6923C13.8462 15.8147 13.7975 15.9321 13.711 16.0187C13.6244 16.1052 13.507 16.1538 13.3846 16.1538C13.2622 16.1538 13.1448 16.1052 13.0583 16.0187C12.9717 15.9321 12.9231 15.8147 12.9231 15.6923V13.3846H10.6154C10.493 13.3846 10.3756 13.336 10.289 13.2494C10.2025 13.1629 10.1538 13.0455 10.1538 12.9231C10.1538 12.8007 10.2025 12.6833 10.289 12.5967C10.3756 12.5102 10.493 12.4615 10.6154 12.4615H12.9231V10.1538C12.9231 10.0314 12.9717 9.91404 13.0583 9.82749C13.1448 9.74093 13.2622 9.69231 13.3846 9.69231Z" fill="#8A8A8E"/>
</svg>
