<svg width="42" height="40" viewBox="0 0 42 40" fill="none" xmlns="http://www.w3.org/2000/svg">
<path d="M11.0769 2.24205C11.4544 1.56255 12.0068 0.996352 12.6767 0.602137C13.3467 0.207922 14.1099 2.90225e-05 14.8872 0H22.0359C22.8132 2.90225e-05 23.5764 0.207922 24.2464 0.602137C24.9163 0.996352 25.4686 1.56255 25.8462 2.24205L27.1651 4.61538H31.0256C32.5897 4.61538 34.0898 5.23672 35.1958 6.3427C36.3017 7.44869 36.9231 8.94872 36.9231 10.5128V17.481C34.7804 16.1084 32.2882 15.3807 29.7436 15.3846C28.5323 15.3846 27.358 15.5467 26.2421 15.8492C25.7864 14.4938 24.9845 13.281 23.9157 12.331C22.847 11.381 21.5485 10.7269 20.1491 10.4333C18.7496 10.1397 17.2977 10.217 15.9373 10.6575C14.5769 11.0979 13.3552 11.8862 12.3933 12.9443C11.4314 14.0024 10.7627 15.2934 10.4536 16.6895C10.1444 18.0856 10.2054 19.5383 10.6306 20.9036C11.0558 22.2688 11.8305 23.4992 12.8777 24.4729C13.9249 25.4465 15.2085 26.1296 16.601 26.4544C16.1768 28.9474 16.4648 31.5095 17.4318 33.8462H5.89744C4.33334 33.8462 2.8333 33.2248 1.72732 32.1188C0.621335 31.0129 0 29.5128 0 27.9487V10.5128C0 8.94872 0.621335 7.44869 1.72732 6.3427C2.8333 5.23672 4.33334 4.61538 5.89744 4.61538H9.75898L11.0769 2.24205ZM18.4615 12.8205C17.0672 12.8186 15.7215 13.3331 14.6842 14.2648C13.6469 15.1965 12.9914 16.4794 12.8441 17.866C12.6969 19.2525 13.0685 20.6445 13.887 21.7732C14.7056 22.902 15.9133 23.6876 17.2769 23.9785C18.4786 20.8317 20.8225 18.2538 23.841 16.759C23.4792 15.6161 22.7627 14.6181 21.7954 13.91C20.8281 13.2018 19.6604 12.8202 18.4615 12.8205ZM29.7436 40C35.9744 40 41.0256 34.9487 41.0256 28.718C41.0256 22.4872 35.9744 17.4359 29.7436 17.4359C23.5128 17.4359 18.4615 22.4872 18.4615 28.718C18.4615 34.9487 23.5128 40 29.7436 40ZM29.7436 21.5385C30.0156 21.5385 30.2765 21.6465 30.4688 21.8389C30.6612 22.0312 30.7692 22.2921 30.7692 22.5641V27.6923H35.8974C36.1695 27.6923 36.4303 27.8004 36.6227 27.9927C36.815 28.1851 36.9231 28.4459 36.9231 28.718C36.9231 28.99 36.815 29.2508 36.6227 29.4432C36.4303 29.6355 36.1695 29.7436 35.8974 29.7436H30.7692V34.8718C30.7692 35.1438 30.6612 35.4047 30.4688 35.597C30.2765 35.7894 30.0156 35.8974 29.7436 35.8974C29.4716 35.8974 29.2107 35.7894 29.0184 35.597C28.826 35.4047 28.718 35.1438 28.718 34.8718V29.7436H23.5897C23.3177 29.7436 23.0569 29.6355 22.8645 29.4432C22.6722 29.2508 22.5641 28.99 22.5641 28.718C22.5641 28.4459 22.6722 28.1851 22.8645 27.9927C23.0569 27.8004 23.3177 27.6923 23.5897 27.6923H28.718V22.5641C28.718 22.2921 28.826 22.0312 29.0184 21.8389C29.2107 21.6465 29.4716 21.5385 29.7436 21.5385Z" fill="#F2243E"/>
</svg>
