<svg width="24" height="24" viewBox="0 0 24 24" fill="none" xmlns="http://www.w3.org/2000/svg">
    <path fill-rule="evenodd" clip-rule="evenodd" d="M0 12C0 18.6276 5.3724 24 12 24C13.92 24 15.7344 23.5488 17.3424 22.7472C17.7672 22.5277 18.2575 22.4709 18.7212 22.5876L21.3924 23.3028C21.6568 23.3734 21.9351 23.3731 22.1994 23.3021C22.4636 23.2311 22.7046 23.0918 22.898 22.8983C23.0915 22.7047 23.2306 22.4637 23.3014 22.1994C23.3723 21.9351 23.3723 21.6567 23.3016 21.3924L22.5876 18.7212C22.4715 18.2578 22.5287 17.7678 22.7484 17.3436C23.5744 15.6836 24.0029 13.8542 24 12C24 5.3724 18.6276 0 12 0C5.3724 0 0 5.3724 0 12ZM17.4 10.9296C17.4 12.5724 15.8172 14.2956 14.3652 15.5304C13.3776 16.3704 12.8832 16.7916 12 16.7916C11.1168 16.7916 10.6224 16.3716 9.6348 15.5304C8.1828 14.2944 6.6 12.5724 6.6 10.9296C6.6 7.7172 9.57 6.5184 12 9C14.43 6.5184 17.4 7.7172 17.4 10.9296Z" fill="#8A8A8E"/>
</svg>
