<svg width="15" height="16" viewBox="0 0 15 16" fill="none" xmlns="http://www.w3.org/2000/svg">
    <path fill-rule="evenodd" clip-rule="evenodd" d="M0.360018 0.375391C0.590607 0.144871 0.903311 0.0153726 1.22936 0.0153726C1.55542 0.0153726 1.86812 0.144871 2.09871 0.375391L7.3775 5.65418L12.6563 0.375391C12.7697 0.257949 12.9054 0.164273 13.0554 0.0998296C13.2054 0.035386 13.3668 0.00146519 13.5301 4.64271e-05C13.6933 -0.00137234 13.8552 0.0297391 14.0064 0.0915658C14.1575 0.153393 14.2948 0.244696 14.4102 0.360149C14.5257 0.475602 14.617 0.612893 14.6788 0.764009C14.7406 0.915126 14.7717 1.07704 14.7703 1.24031C14.7689 1.40358 14.735 1.56493 14.6705 1.71495C14.6061 1.86497 14.5124 2.00065 14.395 2.11408L8.24685 8.26222C8.01626 8.49274 7.70355 8.62224 7.3775 8.62224C7.05145 8.62224 6.73874 8.49274 6.50815 8.26222L0.360018 2.11408C0.129499 1.88349 0 1.57079 0 1.24474C0 0.918684 0.129499 0.60598 0.360018 0.375391ZM0.360018 7.75315C0.590607 7.52263 0.903311 7.39314 1.22936 7.39314C1.55542 7.39314 1.86812 7.52263 2.09871 7.75315L7.3775 13.0319L12.6563 7.75315C12.8882 7.52917 13.1988 7.40523 13.5212 7.40803C13.8436 7.41083 14.152 7.54015 14.38 7.76813C14.608 7.99611 14.7373 8.30452 14.7401 8.62693C14.7429 8.94933 14.619 9.25994 14.395 9.49185L8.24685 15.64C8.01626 15.8705 7.70355 16 7.3775 16C7.05145 16 6.73874 15.8705 6.50815 15.64L0.360018 9.49185C0.129499 9.26126 0 8.94855 0 8.6225C0 8.29645 0.129499 7.98374 0.360018 7.75315Z" fill="white"/>
</svg>
