<svg width="32" height="32" viewBox="0 0 32 32" fill="none" xmlns="http://www.w3.org/2000/svg">
    <rect width="32" height="32" rx="16" fill="white"/>
    <path d="M15.2032 8C14.1418 8 13.124 8.42161 12.3735 9.17209C11.623 9.92257 11.2014 10.9404 11.2014 12.0018C11.2014 13.0631 11.623 14.081 12.3735 14.8314C13.124 15.5819 14.1418 16.0035 15.2032 16.0035C16.2645 16.0035 17.2824 15.5819 18.0328 14.8314C18.7833 14.081 19.2049 13.0631 19.2049 12.0018C19.2049 10.9404 18.7833 9.92257 18.0328 9.17209C17.2824 8.42161 16.2645 8 15.2032 8ZM15.2032 16.8039C15.6764 16.8049 16.1364 16.837 16.583 16.8999C16.7332 16.9209 16.8743 16.9841 16.9899 17.0822C17.1056 17.1803 17.191 17.3092 17.2362 17.454C17.2814 17.5987 17.2845 17.7534 17.2453 17.8998C17.206 18.0463 17.1259 18.1786 17.0144 18.2813C16.3557 18.8848 15.8513 19.6373 15.5435 20.476C15.2358 21.3146 15.1336 22.2148 15.2456 23.1011C15.2597 23.2149 15.2492 23.3305 15.2148 23.44C15.1803 23.5494 15.1227 23.6502 15.0459 23.7354C14.9691 23.8207 14.8748 23.8884 14.7695 23.934C14.6642 23.9797 14.5504 24.0021 14.4356 23.9998C12.8269 23.9678 11.3223 23.827 10.1986 23.4828C9.63672 23.3107 9.10689 23.069 8.70511 22.7129C8.28012 22.3367 8 21.8301 8 21.2058C8 20.5759 8.28653 19.9869 8.6755 19.4939C9.07087 18.9936 9.61751 18.5334 10.2586 18.1413C11.5416 17.3601 13.2863 16.8039 15.2032 16.8039ZM23.3764 17.6314C23.7515 18.0067 23.9622 18.5155 23.9622 19.0461C23.9622 19.5766 23.7515 20.0855 23.3764 20.4607L20.6408 23.1963C20.4572 23.3798 20.219 23.4989 19.9621 23.5356L18.1141 23.7998C17.9909 23.8175 17.8653 23.8062 17.7472 23.7669C17.6292 23.7276 17.5219 23.6613 17.434 23.5732C17.346 23.4852 17.2798 23.3779 17.2406 23.2598C17.2014 23.1417 17.1902 23.0161 17.2081 22.893L17.4722 21.0457C17.5088 20.7885 17.6278 20.5501 17.8115 20.3662L20.5471 17.6306C20.9223 17.2555 21.4312 17.0448 21.9617 17.0448C22.4923 17.0448 23.0012 17.2555 23.3764 17.6306V17.6314Z" fill="#121212"/>
</svg>
