<svg width="23" height="20" viewBox="0 0 23 20" fill="none" xmlns="http://www.w3.org/2000/svg">
    <path d="M19.2404 13.0055C19.6775 12.2404 20.0054 11.3661 20.0054 10.3825C20.0054 7.65027 17.8196 5.46448 15.0874 5.46448C12.3551 5.46448 10.1693 7.65027 10.1693 10.3825C10.1693 13.1148 12.3551 15.3005 15.0874 15.3005C16.071 15.3005 16.9453 14.9727 17.7103 14.5355L20.8797 17.7049L22.4098 16.1749L19.2404 13.0055ZM15.0874 13.1148C13.5573 13.1148 12.3551 11.9126 12.3551 10.3825C12.3551 8.85246 13.5573 7.65027 15.0874 7.65027C16.6174 7.65027 17.8196 8.85246 17.8196 10.3825C17.8196 11.9126 16.6174 13.1148 15.0874 13.1148ZM14.213 17.3771C13.7759 17.8142 13.3387 18.1421 12.9016 18.5792L11.2622 20L9.62287 18.5792C4.0491 13.5519 0.333252 10.1639 0.333252 6.01093C0.333252 2.62295 2.9562 0 6.34418 0C8.20211 0 10.06 0.874317 11.2622 2.29508C12.4644 0.874317 14.3223 0 16.1802 0C19.5682 0 22.1912 2.62295 22.1912 6.01093C22.1912 6.77596 22.0819 7.43169 21.8633 8.19672C20.8797 5.35519 18.2568 3.27869 15.0874 3.27869C11.1529 3.27869 7.98353 6.44809 7.98353 10.3825C7.98353 13.9891 10.7158 16.9399 14.213 17.3771Z" fill="#121212"/>
</svg>
