<svg width="20" height="24" viewBox="0 0 20 24" fill="none" xmlns="http://www.w3.org/2000/svg">
    <path d="M18.5187 9.00953C17.7859 8.0075 16.9432 7.09068 16.0063 6.27617L15.9863 6.25917C15.9278 6.19351 15.8484 6.15001 15.7616 6.13599C15.6747 6.12197 15.5857 6.13829 15.5095 6.18219L15.5115 6.18119C15.4445 6.21476 15.3909 6.26997 15.3594 6.33785C15.3278 6.40573 15.3201 6.48229 15.3375 6.5551V6.5531L15.3235 6.54411C15.8224 7.46289 16.1193 8.55563 16.1273 9.71636V9.71836C16.1353 10.4282 16.0903 10.9251 16.0893 10.9341C16.0733 11.031 16.0539 11.1274 16.0313 11.223C15.9723 11.5119 15.5784 12.3637 15.0206 12.1298C14.4627 11.8958 14.4287 11.0011 14.4287 11.0011H14.4207C14.233 7.38611 12.628 3.99083 9.95376 1.55128L9.94277 1.54128L9.93777 1.53628L9.93277 1.53128C9.425 1.08224 8.87565 0.682529 8.29215 0.337565L8.24216 0.310572C8.19213 0.286392 8.14371 0.259008 8.0972 0.228591L8.1032 0.23159C8.03209 0.186728 7.95715 0.148254 7.87925 0.116617L7.86825 0.112618C7.81826 0.0866245 7.76628 0.0666292 7.71229 0.0426348C7.65954 0.0168963 7.602 0.002473 7.54335 0.000291011C7.4847 -0.00189098 7.42624 0.00821661 7.37173 0.0299647C7.31722 0.0517128 7.26786 0.0846207 7.22682 0.126575C7.18578 0.16853 7.15397 0.218603 7.13342 0.27358L7.13243 0.27658C7.10338 0.673296 7.17061 1.07116 7.32838 1.43631L7.32238 1.42031C7.98123 3.08492 8.36414 5.01247 8.36414 7.02999C8.36414 8.23171 8.22817 9.40143 7.97223 10.5252L7.99222 10.4202C7.93156 10.6586 7.81428 10.8789 7.65033 11.0624C7.48638 11.2458 7.2806 11.387 7.05044 11.4739L7.04045 11.4769C6.75921 11.5035 6.47713 11.4357 6.23871 11.2842C6.00029 11.1326 5.81911 10.9061 5.72376 10.6401L5.72076 10.6311C5.69476 10.5592 5.66277 10.4922 5.64278 10.4142V10.4002C5.16089 8.6826 5.75175 6.11021 6.16465 4.67654C6.44159 3.61579 5.13989 4.67654 5.13989 4.67654H5.13489C4.87895 4.89249 4.60302 5.13644 4.31309 5.40637V5.39638C3.94617 5.7323 3.46129 6.19819 2.96241 6.73106C2.69247 7.01999 -0.905684 10.9791 0.216052 16.3868C1.32879 20.7918 5.25687 24 9.93377 24C15.0136 24 19.2096 20.2149 19.8554 15.312L19.8604 15.2611C19.8844 15.0621 19.9064 14.8641 19.9164 14.6672C19.9214 14.6052 19.9224 14.5402 19.9254 14.4752C19.9783 12.5393 19.4827 10.6278 18.4958 8.96154L18.5217 9.00953H18.5187Z" fill="#8A8A8E"/>
</svg>
