<svg width="21" height="20" viewBox="0 0 21 20" fill="none" xmlns="http://www.w3.org/2000/svg">
    <path d="M20.2222 10.698C20.2202 12.168 20.2092 13.416 20.1262 14.441C20.0292 15.631 19.8302 16.625 19.3862 17.45C19.1924 17.8117 18.9464 18.143 18.6562 18.433C17.8232 19.266 16.7632 19.643 15.4192 19.823C14.1062 20 12.4222 20 10.2752 20H10.1692C8.02117 20 6.33917 20 5.02517 19.823C3.68217 19.643 2.62117 19.266 1.78917 18.433C1.05117 17.695 0.669168 16.777 0.467168 15.638C0.267168 14.518 0.231168 13.126 0.224168 11.397C0.222168 10.957 0.222168 10.492 0.222168 10V9.94602C0.222168 7.79802 0.222168 6.11602 0.399168 4.80202C0.579168 3.45902 0.956168 2.39802 1.78917 1.56602C2.62117 0.733023 3.68217 0.356024 5.02517 0.176024C6.19317 0.0190236 7.69517 0.00102344 9.52417 -0.000976562C9.70929 -0.000976562 9.88683 0.0725626 10.0177 0.203463C10.1486 0.334363 10.2222 0.511902 10.2222 0.697024C10.2222 0.882145 10.1486 1.05968 10.0177 1.19058C9.88683 1.32148 9.70929 1.39502 9.52417 1.39502C7.66917 1.39702 6.29017 1.41302 5.21117 1.55802C4.02217 1.71802 3.30517 2.02202 2.77517 2.55202C2.24517 3.08202 1.94217 3.80002 1.78217 4.99002C1.61917 6.20002 1.61717 7.78802 1.61717 10V10.784L2.54917 9.97002C2.9577 9.61259 3.48679 9.42375 4.02931 9.44176C4.57184 9.45977 5.08724 9.68328 5.47117 10.067L9.46117 14.057C9.77073 14.3668 10.1797 14.5574 10.6159 14.5952C11.0522 14.6331 11.4879 14.5158 11.8462 14.264L12.1242 14.069C12.6409 13.7058 13.2657 13.5287 13.8962 13.5666C14.5267 13.6046 15.1257 13.8554 15.5952 14.278L18.2282 16.648C18.4932 16.091 18.6512 15.36 18.7352 14.328C18.8142 13.356 18.8252 12.176 18.8262 10.698C18.8262 10.5129 18.8997 10.3354 19.0306 10.2045C19.1615 10.0736 19.339 10 19.5242 10C19.7093 10 19.8868 10.0736 20.0177 10.2045C20.1486 10.3354 20.2222 10.5129 20.2222 10.698Z" fill="#121212"/>
    <path fill-rule="evenodd" clip-rule="evenodd" d="M15.7222 9C13.6012 9 12.5402 9 11.8812 8.341C11.2222 7.682 11.2222 6.621 11.2222 4.5C11.2222 2.379 11.2222 1.318 11.8812 0.659C12.5402 -5.96046e-08 13.6012 0 15.7222 0C17.8432 0 18.9042 -5.96046e-08 19.5632 0.659C20.2222 1.318 20.2222 2.379 20.2222 4.5C20.2222 6.621 20.2222 7.682 19.5632 8.341C18.9042 9 17.8432 9 15.7222 9ZM17.7522 3.47L16.2522 1.97C16.1115 1.82955 15.9209 1.75066 15.7222 1.75066C15.5234 1.75066 15.3328 1.82955 15.1922 1.97L13.6922 3.47C13.5597 3.61217 13.4876 3.80022 13.491 3.99452C13.4944 4.18882 13.5731 4.37421 13.7105 4.51162C13.848 4.64903 14.0333 4.72775 14.2276 4.73117C14.4219 4.7346 14.61 4.66248 14.7522 4.53L14.9722 4.31V6.5C14.9722 6.69891 15.0512 6.88968 15.1918 7.03033C15.3325 7.17098 15.5233 7.25 15.7222 7.25C15.9211 7.25 16.1118 7.17098 16.2525 7.03033C16.3932 6.88968 16.4722 6.69891 16.4722 6.5V4.31L16.6922 4.53C16.7608 4.60369 16.8436 4.66279 16.9356 4.70378C17.0276 4.74477 17.1269 4.76681 17.2276 4.76859C17.3283 4.77037 17.4284 4.75184 17.5218 4.71412C17.6152 4.6764 17.7 4.62026 17.7712 4.54904C17.8424 4.47782 17.8986 4.39299 17.9363 4.2996C17.974 4.20621 17.9925 4.10618 17.9908 4.00548C17.989 3.90477 17.9669 3.80546 17.9259 3.71346C17.885 3.62146 17.8259 3.53866 17.7522 3.47Z" fill="#121212"/>
</svg>
