<svg width="16" height="17" viewBox="0 0 16 17" fill="none" xmlns="http://www.w3.org/2000/svg">
    <path d="M1.99057 14.2127C1.99057 14.8193 2.23155 15.4011 2.6605 15.8301C3.08944 16.259 3.67122 16.5 4.27785 16.5H7.56582C7.60373 16.5 7.6401 16.4849 7.6669 16.4581C7.69371 16.4313 7.70878 16.395 7.70878 16.357V9.7811C7.70878 9.74319 7.69371 9.70683 7.6669 9.68002C7.6401 9.65321 7.60373 9.63815 7.56582 9.63815H2.27648C2.20065 9.63815 2.12793 9.66827 2.07431 9.72189C2.02069 9.77551 1.99057 9.84823 1.99057 9.92406V14.2127ZM7.70878 8.35155V4.49176H8.85242V8.35155C8.85242 8.38947 8.86748 8.42583 8.89429 8.45264C8.9211 8.47945 8.95746 8.49451 8.99537 8.49451H13.9988C14.1936 8.49452 14.387 8.46128 14.5706 8.39622C14.9048 8.27758 15.1941 8.05847 15.3988 7.76895C15.6036 7.47942 15.7138 7.13365 15.7143 6.77904V6.20722C15.7143 5.75225 15.5335 5.31592 15.2118 4.99421C14.8901 4.6725 14.4538 4.49176 13.9988 4.49176H12.55C12.5375 4.49156 12.5253 4.48811 12.5146 4.48176C12.5039 4.4754 12.495 4.46636 12.4889 4.45553C12.4828 4.4447 12.4796 4.43245 12.4796 4.42C12.4797 4.40755 12.483 4.39533 12.4892 4.38454C12.8201 3.8259 12.9275 3.16283 12.7901 2.52828C12.6526 1.89373 12.2803 1.33461 11.7478 0.96304C11.2154 0.591469 10.5621 0.434914 9.91911 0.524768C9.27608 0.614621 8.69079 0.944239 8.2806 1.44753C7.8704 0.944239 7.28511 0.614621 6.64208 0.524768C5.99905 0.434914 5.34582 0.591469 4.81338 0.96304C4.28093 1.33461 3.90864 1.89373 3.77114 2.52828C3.63365 3.16283 3.74111 3.8259 4.07199 4.38454C4.07822 4.39533 4.08152 4.40755 4.08157 4.42C4.08163 4.43245 4.07842 4.4447 4.07228 4.45553C4.06615 4.46636 4.05728 4.4754 4.04658 4.48176C4.03587 4.48811 4.02369 4.49156 4.01124 4.49176H2.56239C2.10742 4.49176 1.67108 4.6725 1.34937 4.99421C1.02766 5.31592 0.846924 5.75225 0.846924 6.20722V6.77904C0.847429 7.13365 0.957608 7.47942 1.16236 7.76895C1.3671 8.05847 1.65639 8.27758 1.99057 8.39622C2.17419 8.46128 2.36758 8.49452 2.56239 8.49451H7.56582C7.60373 8.49451 7.6401 8.47945 7.6669 8.45264C7.69371 8.42583 7.70878 8.38947 7.70878 8.35155ZM8.85242 3.06221C8.85242 2.77947 8.93626 2.50308 9.09334 2.26799C9.25042 2.0329 9.47369 1.84967 9.7349 1.74147C9.99612 1.63327 10.2836 1.60496 10.5609 1.66012C10.8382 1.71528 11.0929 1.85144 11.2928 2.05136C11.4927 2.25129 11.6289 2.50601 11.6841 2.78332C11.7392 3.06062 11.7109 3.34806 11.6027 3.60927C11.4945 3.87049 11.3113 4.09376 11.0762 4.25084C10.8411 4.40792 10.5647 4.49176 10.282 4.49176H8.85242V3.06221ZM6.17701 1.63623C6.37286 1.62219 6.5695 1.64865 6.75467 1.71395C6.93984 1.77925 7.10958 1.882 7.25329 2.01579C7.39701 2.14958 7.51162 2.31154 7.58998 2.49158C7.66835 2.67161 7.70879 2.86586 7.70878 3.06221V4.49176H6.27922C5.90957 4.49081 5.55466 4.34671 5.28897 4.08971C5.02329 3.8327 4.86748 3.48277 4.85425 3.11336C4.84103 2.74394 4.97142 2.38377 5.21804 2.10842C5.46467 1.83307 5.80837 1.66397 6.17701 1.63659V1.63623ZM8.99537 16.5H12.2833C12.89 16.5 13.4717 16.259 13.9007 15.8301C14.3296 15.4011 14.5706 14.8193 14.5706 14.2127V9.92406C14.5706 9.84823 14.5405 9.77551 14.4869 9.72189C14.4333 9.66827 14.3605 9.63815 14.2847 9.63815H8.99537C8.95746 9.63815 8.9211 9.65321 8.89429 9.68002C8.86748 9.70683 8.85242 9.74319 8.85242 9.7811V16.357C8.85242 16.395 8.86748 16.4313 8.89429 16.4581C8.9211 16.4849 8.95746 16.5 8.99537 16.5Z" fill="#121212"/>
</svg>
