<svg width="25" height="24" viewBox="0 0 25 24" fill="none" xmlns="http://www.w3.org/2000/svg">
    <path d="M20.76 17.88C21.24 17.04 21.6 16.08 21.6 15C21.6 12 19.2 9.6 16.2 9.6C13.2 9.6 10.8 12 10.8 15C10.8 18 13.2 20.4 16.2 20.4C17.28 20.4 18.24 20.04 19.08 19.56L22.92 23.4L24.6 21.72L20.76 17.88ZM16.2 18C14.52 18 13.2 16.68 13.2 15C13.2 13.32 14.52 12 16.2 12C17.88 12 19.2 13.32 19.2 15C19.2 16.68 17.88 18 16.2 18ZM12 21.6V24C5.376 24 0 18.624 0 12C0 5.376 5.376 0 12 0C17.808 0 22.644 4.128 23.76 9.6H21.276C20.9017 8.15021 20.1935 6.80806 19.208 5.68082C18.2224 4.55358 16.9868 3.6725 15.6 3.108V3.6C15.6 4.92 14.52 6 13.2 6H10.8V8.4C10.8 9.06 10.26 9.6 9.6 9.6H7.2V12H9.6V15.6H8.4L2.652 9.852C2.496 10.548 2.4 11.256 2.4 12C2.4 17.292 6.708 21.6 12 21.6Z" fill="#8A8A8E"/>
</svg>
