<svg width="17" height="18" viewBox="0 0 17 18" fill="none" xmlns="http://www.w3.org/2000/svg">
    <path fill-rule="evenodd" clip-rule="evenodd" d="M0.400002 7.5753C0.400002 4.6971 0.400002 3.258 0.740202 2.7738C1.0795 2.2905 2.4322 1.827 5.1385 0.9009L5.6542 0.7245C7.0645 0.2412 7.7692 0 8.5 0C9.2308 0 9.9355 0.2412 11.3458 0.7245L11.8615 0.9009C14.5678 1.827 15.9205 2.2905 16.2598 2.7738C16.6 3.258 16.6 4.698 16.6 7.5753V8.9919C16.6 14.0661 12.7849 16.5294 10.3909 17.5743C9.742 17.8578 9.418 18 8.5 18C7.582 18 7.258 17.8578 6.6091 17.5743C4.2151 16.5285 0.400002 14.067 0.400002 8.9919V7.5753ZM10.3 6.3C10.3 6.77739 10.1104 7.23523 9.77279 7.57279C9.43523 7.91036 8.97739 8.1 8.5 8.1C8.02261 8.1 7.56478 7.91036 7.22721 7.57279C6.88964 7.23523 6.7 6.77739 6.7 6.3C6.7 5.82261 6.88964 5.36477 7.22721 5.02721C7.56478 4.68964 8.02261 4.5 8.5 4.5C8.97739 4.5 9.43523 4.68964 9.77279 5.02721C10.1104 5.36477 10.3 5.82261 10.3 6.3ZM8.5 13.5C12.1 13.5 12.1 12.6945 12.1 11.7C12.1 10.7055 10.489 9.9 8.5 9.9C6.511 9.9 4.9 10.7055 4.9 11.7C4.9 12.6945 4.9 13.5 8.5 13.5Z" fill="#121212"/>
</svg>
