<svg width="22" height="24" viewBox="0 0 22 24" fill="none" xmlns="http://www.w3.org/2000/svg">
    <path d="M9.09491 0H11.7695V1.7679C12.6207 1.71574 13.4451 1.76522 14.186 1.92169C11.0433 3.15868 9.59707 6.33809 9.36037 6.8583L9.34566 6.89039C8.57738 6.77405 7.74559 6.67642 6.95859 6.68378C6.14686 6.75332 5.35986 6.87301 4.06336 7.60317C3.88015 7.73288 3.63409 7.94418 3.2991 8.2678C3.27503 8.24975 3.24895 8.23437 3.21485 8.2123L3.11388 8.14811C2.86084 7.98415 2.59876 7.83458 2.32889 7.70012C1.64955 7.36312 0.816416 7.07627 0 7.07627V4.4826C1.41151 4.4826 2.68127 4.96202 3.54716 5.39196C3.84739 5.54106 4.11083 5.6895 4.32948 5.8219C4.52642 5.40654 4.77953 5.02024 5.08171 4.67383L3.61202 2.36901L5.96632 0.839819L7.32167 2.96611C7.89004 2.67567 8.48327 2.43668 9.09425 2.252L9.09491 0ZM16.2875 5.8112C15.3126 6.2632 14.4688 7.0054 13.7086 8.43496C13.7086 8.43496 12.0209 7.66335 10.6515 7.26216C11.7026 5.13185 12.9249 3.93364 14.7283 3.09783C16.4727 2.28877 18.5529 2.08149 21.0256 2.16775L20.9079 5.34916C18.6278 5.27026 17.3206 5.33245 16.2875 5.8112Z" fill="#8A8A8E"/>
    <path d="M4.60228 8.8395C-0.25409 13.171 6.68311 23.9997 12.2335 23.9997C17.784 23.9997 25.4259 13.1803 19.8648 8.22034C19.749 8.11688 19.634 8.01257 19.5198 7.90741C19.0597 7.48616 18.7542 7.20533 17.9056 6.70117C16.1993 6.70117 15.1709 8.40822 14.7028 9.44864C14.6792 9.50062 14.65 9.54994 14.6159 9.59574L13.5361 12.598L13.1476 13.9948C13.1065 14.1421 13.1171 14.299 13.1777 14.4394L13.6323 15.4892L15.984 15.2164L16.1384 16.5443L13.9259 16.8017L14.0696 18.9086L12.7357 18.9996L12.5565 16.3711L11.9507 14.9703C11.7683 14.549 11.736 14.0779 11.8591 13.6357L11.8705 13.5942L10.5104 14.2094L9.62113 16.4567L8.37745 15.9646L9.08221 14.1847L6.93585 13.6792L7.24209 12.3773L9.92069 13.0085L12.3646 11.9019L13.187 9.61513C11.0688 8.61952 6.71854 6.95058 4.60161 8.83816" fill="#8A8A8E"/>
</svg>
