<svg width="15" height="15" viewBox="0 0 15 15" fill="none" xmlns="http://www.w3.org/2000/svg">
    <path d="M0.0879239 5.81622L2.65428 1.31351C2.73205 1.17477 2.82926 1.07387 2.94591 1.01081C3.06256 0.947748 3.19218 0.916216 3.33475 0.916216C3.47733 0.916216 3.60694 0.947748 3.72359 1.01081C3.84025 1.07387 3.93746 1.17477 4.01522 1.31351L6.58158 5.81622C6.64639 5.94234 6.67568 6.06847 6.66946 6.19459C6.66324 6.32072 6.62746 6.44054 6.56214 6.55405C6.49681 6.66757 6.40608 6.75913 6.28995 6.82876C6.17381 6.89838 6.0442 6.93294 5.90111 6.93243H0.768397C0.625821 6.93243 0.496208 6.89787 0.379555 6.82876C0.262903 6.75964 0.172173 6.66807 0.107366 6.55405C0.042559 6.44003 0.0070449 6.32021 0.000823429 6.19459C-0.00539804 6.06897 0.0236355 5.94285 0.0879239 5.81622ZM3.33475 14.5C2.4793 14.5 1.74698 14.2036 1.1378 13.6108C0.528611 13.018 0.224018 12.3054 0.224018 11.473C0.224018 10.6405 0.528611 9.92793 1.1378 9.33513C1.74698 8.74234 2.4793 8.44594 3.33475 8.44594C4.1902 8.44594 4.92252 8.74234 5.53171 9.33513C6.14089 9.92793 6.44548 10.6405 6.44548 11.473C6.44548 12.3054 6.14089 13.018 5.53171 13.6108C4.92252 14.2036 4.1902 14.5 3.33475 14.5ZM8.00085 13.7432V9.2027C8.00085 8.98829 8.07551 8.80868 8.22482 8.66389C8.37414 8.5191 8.55871 8.44645 8.77853 8.44594H13.4446C13.665 8.44594 13.8498 8.51859 13.9991 8.66389C14.1484 8.80919 14.2228 8.98879 14.2223 9.2027V13.7432C14.2223 13.9577 14.1477 14.1375 13.9983 14.2828C13.849 14.4281 13.6645 14.5005 13.4446 14.5H8.77853C8.55819 14.5 8.37362 14.4273 8.22482 14.2821C8.07603 14.1368 8.00137 13.9572 8.00085 13.7432ZM10.6061 6.51621L9.57566 5.66486C8.68132 4.93333 8.06566 4.35643 7.72866 3.93416C7.39167 3.51189 7.22317 3.04195 7.22317 2.52432C7.22317 1.95676 7.42744 1.47748 7.83598 1.08649C8.24452 0.695496 8.75313 0.5 9.3618 0.5C9.71175 0.5 10.0392 0.578955 10.344 0.736865C10.6489 0.894775 10.9047 1.11222 11.1116 1.38919C11.319 1.11171 11.5751 0.89427 11.8799 0.736865C12.1848 0.579459 12.5119 0.500505 12.8614 0.5C13.4706 0.5 13.9794 0.695496 14.388 1.08649C14.7965 1.47748 15.0005 1.95676 15 2.52432C15 3.04144 14.8315 3.51139 14.4945 3.93416C14.1575 4.35694 13.5418 4.93384 12.6475 5.66486L11.6171 6.51621C11.4745 6.64234 11.306 6.7054 11.1116 6.7054C10.9172 6.7054 10.7487 6.64234 10.6061 6.51621Z" fill="#121212"/>
</svg>
