<svg width="34" height="34" viewBox="0 0 34 34" fill="none" xmlns="http://www.w3.org/2000/svg">
    <path d="M32.975 18.2532C32.8065 17.9303 32.617 17.6284 32.3993 17.3406C32.3291 17.2423 32.2449 17.137 32.1466 17.0106L26.3618 11.2257C25.772 10.636 24.9507 10.3622 24.1012 10.4956C23.5466 10.5799 23.0411 10.8677 22.6409 11.2679L22.0372 11.8716C21.7423 12.1665 21.5247 12.4964 21.3983 12.8475C21.0473 13.8022 21.286 14.8764 21.995 15.5925L26.0248 19.6222C26.9725 20.57 27.4991 21.8407 27.4991 23.1816C27.4991 24.5225 26.9725 25.7932 26.0248 26.7409C25.2806 27.4781 24.1152 27.5764 23.2587 26.9656C22.2127 26.2144 20.963 25.2947 19.6572 24.2276C19.4045 24.017 19.1939 23.7783 18.9763 23.5677L18.6323 23.2377C18.0285 22.662 17.2001 22.4023 16.3506 22.5567C15.8171 22.655 15.3326 22.9358 14.9465 23.322L14.3357 23.9327C13.0791 25.1964 10.6079 28.1942 9.26698 27.8361C9.26698 27.8361 9.25996 27.8361 9.24592 27.8361L9.22486 27.8291C8.62812 27.5764 8.10861 27.2183 7.64526 26.762C6.69048 25.8072 6.17097 24.5435 6.17097 23.1956C6.17097 21.8477 6.66942 20.7314 7.70142 19.5731L23.4062 5.132C24.4171 4.12106 24.4171 2.47126 23.4062 1.45329L22.7462 0.79337C22.4654 0.512552 22.1495 0.301939 21.8055 0.175571C21.5036 0.0632436 21.1947 0.00708008 20.8788 0.00708008C20.1838 0.00708008 19.5309 0.280877 19.0394 0.765288L3.28557 15.2485L3.24344 15.2906C3.24344 15.2906 3.1943 15.3397 3.18026 15.3538C1.10221 17.6495 0 20.3523 0 23.1745C0 26.1723 1.16539 28.9875 3.28557 31.1076C4.31055 32.1326 5.50403 32.94 6.83089 33.5016C7.60314 33.8316 8.42453 33.993 9.26698 33.993C11.5416 33.993 13.6477 32.7715 15.4309 31.3393C16.2664 30.6654 17.4598 30.6654 18.2883 31.3393C20.1206 32.8136 22.1846 33.993 24.4382 33.993C25.2666 33.993 26.0739 33.8316 26.8391 33.5086C28.0747 32.9821 29.2331 32.2028 30.3775 31.1287C32.6591 28.9734 33.6981 26.3267 33.6981 22.5076C33.6981 19.7275 33.2839 18.9693 32.975 18.2602V18.2532Z" fill="url(#paint0_linear_8060_3061)"/>
    <defs>
        <linearGradient id="paint0_linear_8060_3061" x1="0" y1="16.9965" x2="33.6981" y2="16.9965" gradientUnits="userSpaceOnUse">
            <stop stop-color="#FF5C00"/>
            <stop offset="1" stop-color="#F2243E"/>
        </linearGradient>
    </defs>
</svg>
