<svg width="48" height="48" viewBox="0 0 48 48" fill="none" xmlns="http://www.w3.org/2000/svg">
    <path d="M46.553 25.7692C46.3151 25.3133 46.0475 24.8871 45.7402 24.4808C45.6411 24.342 45.5222 24.1934 45.3834 24.015L37.2166 15.8481C36.3841 15.0156 35.2245 14.629 34.0252 14.8173C33.2422 14.9363 32.5286 15.3426 31.9637 15.9076L31.1113 16.7599C30.695 17.1762 30.3878 17.642 30.2094 18.1376C29.7138 19.4855 30.0508 21.0019 31.0518 22.0129L36.7409 27.7019C38.0789 29.0399 38.8222 30.8339 38.8222 32.7269C38.8222 34.62 38.0789 36.4139 36.7409 37.7519C35.6903 38.7926 34.045 38.9313 32.8358 38.0691C31.3591 37.0086 29.5949 35.7102 27.7514 34.2037C27.3946 33.9063 27.0973 33.5694 26.79 33.272L26.3044 32.8062C25.452 31.9935 24.2825 31.6268 23.0832 31.8448C22.33 31.9836 21.6461 32.38 21.101 32.9251L20.2387 33.7874C18.4646 35.5714 14.9758 39.8035 13.0828 39.298C13.0828 39.298 13.0729 39.298 13.0531 39.298L13.0233 39.2881C12.1809 38.9313 11.4475 38.4259 10.7933 37.7816C9.44539 36.4337 8.71196 34.6497 8.71196 32.7467C8.71196 30.8438 9.41565 29.2679 10.8726 27.6325L33.044 7.24518C34.4712 5.81796 34.4712 3.48883 33.044 2.0517L32.1123 1.12005C31.7159 0.723602 31.2699 0.426265 30.7842 0.247864C30.358 0.0892842 29.9219 0.00999451 29.4759 0.00999451C28.4947 0.00999451 27.573 0.396532 26.8792 1.08041L4.63845 21.5272L4.57898 21.5867C4.57898 21.5867 4.5096 21.6561 4.48978 21.6759C1.55606 24.9169 0 28.7327 0 32.717C0 36.9491 1.64526 40.9235 4.63845 43.9167C6.08548 45.3637 7.77039 46.5035 9.64361 47.2964C10.7338 47.7622 11.8935 47.9902 13.0828 47.9902C16.294 47.9902 19.2674 46.2656 21.7848 44.2437C22.9643 43.2923 24.6492 43.2923 25.8187 44.2437C28.4055 46.3251 31.3194 47.9902 34.5009 47.9902C35.6705 47.9902 36.8102 47.7622 37.8906 47.3063C39.6349 46.563 41.2703 45.4628 42.8858 43.9464C46.107 40.9037 47.5738 37.1671 47.5738 31.7754C47.5738 27.8506 46.9891 26.7802 46.553 25.7791V25.7692Z" fill="white"/>
</svg>
