<svg width="16" height="16" viewBox="0 0 16 16" fill="none" xmlns="http://www.w3.org/2000/svg">
    <path d="M11.7647 16C12.888 16 13.9652 15.5538 14.7595 14.7595C15.5538 13.9652 16 12.888 16 11.7647C16 10.6414 15.5538 9.56417 14.7595 8.7699C13.9652 7.97563 12.888 7.52941 11.7647 7.52941C10.6414 7.52941 9.56417 7.97563 8.7699 8.7699C7.97563 9.56417 7.52941 10.6414 7.52941 11.7647C7.52941 12.888 7.97563 13.9652 8.7699 14.7595C9.56417 15.5538 10.6414 16 11.7647 16ZM12.352 14.1224C12.3552 14.2015 12.3423 14.2805 12.3142 14.3546C12.2861 14.4287 12.2433 14.4963 12.1884 14.5534C12.1335 14.6106 12.0677 14.656 11.9948 14.6871C11.9219 14.7181 11.8435 14.7341 11.7642 14.7341C11.685 14.7341 11.6066 14.7181 11.5337 14.6871C11.4608 14.656 11.3949 14.6106 11.3401 14.5534C11.2852 14.4963 11.2424 14.4287 11.2143 14.3546C11.1862 14.2805 11.1733 14.2015 11.1765 14.1224C11.1765 13.9663 11.2384 13.8167 11.3488 13.7064C11.4591 13.5961 11.6087 13.5341 11.7647 13.5341C11.9207 13.5341 12.0703 13.5961 12.1807 13.7064C12.291 13.8167 12.3529 13.9663 12.3529 14.1224M13.5106 10.7793C13.5106 11.3308 13.3082 11.6339 12.8254 12.0207L12.5647 12.2221C12.3332 12.4047 12.2551 12.5045 12.2391 12.6438L12.2287 12.7906C12.209 12.9075 12.1459 13.0127 12.052 13.0851C11.9581 13.1575 11.8403 13.1918 11.7222 13.1811C11.6041 13.1704 11.4944 13.1155 11.415 13.0274C11.3357 12.9393 11.2925 12.8244 11.2941 12.7059C11.2941 12.1694 11.4918 11.8739 11.968 11.4936L12.2296 11.2913C12.5007 11.0748 12.5685 10.9694 12.5685 10.7793C12.5685 10.2541 12.2089 9.88518 11.7647 9.88518C11.2998 9.88518 10.9562 10.2296 10.9609 10.7746C10.9616 10.8364 10.95 10.8977 10.9269 10.955C10.9038 11.0124 10.8697 11.0646 10.8264 11.1087C10.7832 11.1529 10.7316 11.188 10.6748 11.2123C10.6179 11.2365 10.5569 11.2493 10.4951 11.2499C10.4333 11.2505 10.3719 11.2389 10.3146 11.2159C10.2573 11.1928 10.2051 11.1586 10.1609 11.1154C10.1168 11.0721 10.0816 11.0206 10.0574 10.9637C10.0332 10.9069 10.0204 10.8458 10.0198 10.784C10.0104 9.71388 10.7784 8.944 11.7647 8.944C12.7351 8.944 13.5087 9.74024 13.5087 10.7793M6.58824 0C5.58977 0 4.63221 0.396638 3.92619 1.10266C3.22017 1.80868 2.82353 2.76624 2.82353 3.76471C2.82353 4.76317 3.22017 5.72074 3.92619 6.42675C4.63221 7.13277 5.58977 7.52941 6.58824 7.52941C7.5867 7.52941 8.54427 7.13277 9.25028 6.42675C9.9563 5.72074 10.3529 4.76317 10.3529 3.76471C10.3529 2.76624 9.9563 1.80868 9.25028 1.10266C8.54427 0.396638 7.5867 0 6.58824 0ZM1.89082 8.47059C1.64292 8.46947 1.39723 8.51734 1.16788 8.61143C0.938521 8.70553 0.730011 8.84401 0.55432 9.01891C0.378629 9.19382 0.239218 9.4017 0.144092 9.63063C0.0489653 9.85957 -2.50999e-06 10.105 0 10.3529C0 11.9445 0.784 13.1445 2.00941 13.9266C3.216 14.6955 4.84235 15.0588 6.58824 15.0588C6.97537 15.0588 7.35498 15.0409 7.72706 15.0052C6.98837 14.0869 6.58646 12.9433 6.58824 11.7647C6.58824 10.5129 7.03247 9.36471 7.77129 8.47059H1.89082Z" fill="#121212"/>
</svg>
