<svg width="18" height="20" viewBox="0 0 18 20" fill="none" xmlns="http://www.w3.org/2000/svg">
    <path fill-rule="evenodd" clip-rule="evenodd" d="M8.99938 5C10.5518 4.99994 12.0437 5.60157 13.1619 6.67847C14.28 7.75537 14.9372 9.22371 14.9954 10.775L14.9994 11V18H15.9994C16.2543 18.0003 16.4994 18.0979 16.6847 18.2728C16.8701 18.4478 16.9816 18.687 16.9966 18.9414C17.0115 19.1958 16.9287 19.4464 16.7651 19.6418C16.6015 19.8373 16.3695 19.9629 16.1164 19.993L15.9994 20H1.99938C1.7445 19.9997 1.49935 19.9021 1.31401 19.7272C1.12868 19.5522 1.01715 19.313 1.00221 19.0586C0.987273 18.8042 1.07006 18.5536 1.23365 18.3582C1.39724 18.1627 1.62929 18.0371 1.88238 18.007L1.99938 18H2.99938V11C2.99938 9.4087 3.63152 7.88258 4.75674 6.75736C5.88196 5.63214 7.40808 5 8.99938 5ZM8.14238 9.986L6.65138 12.47C6.55934 12.6233 6.50962 12.7982 6.50732 12.977C6.50501 13.1557 6.5502 13.3319 6.63827 13.4875C6.72633 13.6431 6.85411 13.7725 7.00857 13.8626C7.16302 13.9526 7.3386 14 7.51738 14H8.73338L8.14238 14.985C8.01146 15.212 7.97491 15.4814 8.0406 15.7351C8.10628 15.9889 8.26895 16.2067 8.4936 16.3417C8.71825 16.4767 8.98691 16.5181 9.24178 16.457C9.49665 16.3959 9.71735 16.2372 9.85638 16.015L11.3474 13.53C11.4394 13.3767 11.4891 13.2018 11.4914 13.023C11.4937 12.8443 11.4486 12.6681 11.3605 12.5125C11.2724 12.3569 11.1446 12.2275 10.9902 12.1374C10.8357 12.0474 10.6602 12 10.4814 12H9.26538L9.85638 11.015C9.9873 10.788 10.0239 10.5186 9.95817 10.2649C9.89248 10.0111 9.72981 9.79333 9.50517 9.65834C9.28052 9.52334 9.01185 9.48193 8.75698 9.54302C8.50211 9.60412 8.28141 9.76283 8.14238 9.985V9.986ZM2.54138 3.139L2.63538 3.222L3.34238 3.929C3.52173 4.10896 3.62586 4.35043 3.63361 4.60438C3.64136 4.85833 3.55217 5.10571 3.38413 5.29628C3.2161 5.48684 2.98183 5.60631 2.72891 5.6304C2.47598 5.65449 2.22337 5.58141 2.02238 5.426L1.92838 5.343L1.22138 4.636C1.04203 4.45604 0.937908 4.21457 0.930154 3.96062C0.922399 3.70667 1.0116 3.45929 1.17963 3.26872C1.34766 3.07816 1.58193 2.95869 1.83486 2.9346C2.08778 2.91051 2.34039 2.98359 2.54138 3.139ZM16.7774 3.222C16.9649 3.40953 17.0702 3.66384 17.0702 3.929C17.0702 4.19416 16.9649 4.44847 16.7774 4.636L16.0704 5.343C15.9781 5.43851 15.8678 5.51469 15.7458 5.5671C15.6238 5.61951 15.4926 5.6471 15.3598 5.64825C15.227 5.6494 15.0953 5.6241 14.9724 5.57382C14.8495 5.52354 14.7379 5.44929 14.644 5.35539C14.5501 5.2615 14.4758 5.14985 14.4256 5.02695C14.3753 4.90406 14.35 4.77238 14.3511 4.6396C14.3523 4.50682 14.3799 4.3756 14.4323 4.2536C14.4847 4.13159 14.5609 4.02125 14.6564 3.929L15.3634 3.222C15.5509 3.03453 15.8052 2.92921 16.0704 2.92921C16.3355 2.92921 16.5899 3.03453 16.7774 3.222ZM8.99938 0C9.2646 0 9.51895 0.105357 9.70649 0.292893C9.89402 0.48043 9.99938 0.734784 9.99938 1V2C9.99938 2.26522 9.89402 2.51957 9.70649 2.70711C9.51895 2.89464 9.2646 3 8.99938 3C8.73417 3 8.47981 2.89464 8.29228 2.70711C8.10474 2.51957 7.99938 2.26522 7.99938 2V1C7.99938 0.734784 8.10474 0.48043 8.29228 0.292893C8.47981 0.105357 8.73417 0 8.99938 0Z" fill="#F2243E"/>
</svg>
