<svg width="20" height="20" viewBox="0 0 20 20" fill="none" xmlns="http://www.w3.org/2000/svg">
    <path d="M7.33705 19.7335C8.07654 19.91 8.83355 19.999 9.59355 19.999C10.3519 19.9983 11.1076 19.9087 11.845 19.732C12.0389 19.6853 12.2137 19.58 12.3456 19.4304C12.4775 19.2808 12.56 19.0942 12.582 18.896L12.751 17.3605C12.7798 17.086 12.9055 16.8307 13.1056 16.6406C13.3056 16.4504 13.5669 16.3378 13.8425 16.323C14.026 16.315 14.2085 16.3495 14.3765 16.423L15.78 17.0385C15.9021 17.0934 16.0342 17.1223 16.168 17.1231C16.3018 17.124 16.4343 17.0969 16.557 17.0435C16.6805 16.991 16.791 16.913 16.882 16.8145C17.9136 15.7019 18.684 14.3731 19.137 12.925C19.1965 12.7329 19.1947 12.5271 19.132 12.336C19.0693 12.1449 18.9487 11.9781 18.787 11.8585L17.54 10.9385C17.3915 10.8306 17.2706 10.6891 17.1873 10.5256C17.1039 10.362 17.0605 10.1811 17.0605 9.9975C17.0605 9.81393 17.1039 9.63297 17.1873 9.46942C17.2706 9.30587 17.3915 9.16437 17.54 9.0565L18.783 8.1385C18.9452 8.01878 19.0661 7.8515 19.1288 7.65991C19.1915 7.46833 19.193 7.26196 19.133 7.0695C18.6807 5.62086 17.9093 4.2921 16.8755 3.181C16.7385 3.03491 16.5595 2.93484 16.3633 2.89455C16.167 2.85427 15.9631 2.87573 15.7795 2.956L14.3765 3.574C14.2315 3.6395 14.0735 3.674 13.9135 3.674C13.6256 3.67321 13.3481 3.56628 13.1341 3.37366C12.92 3.18104 12.7846 2.91626 12.7535 2.63L12.5835 1.1C12.5616 0.899266 12.4775 0.710393 12.3431 0.559724C12.2086 0.409054 12.0305 0.3041 11.8335 0.2595C11.0997 0.0958124 10.3509 0.00884508 9.59905 0C8.8421 0.00901512 8.0881 0.0961435 7.34905 0.26C7.15223 0.304142 6.97412 0.408695 6.83965 0.559038C6.70517 0.709381 6.62105 0.897995 6.59905 1.0985L6.42905 2.6295C6.39674 2.91624 6.26006 3.18106 6.04505 3.3735C5.82534 3.55993 5.54858 3.66576 5.26055 3.6735C5.10166 3.67339 4.94453 3.64037 4.79905 3.5765L3.39905 2.9585C3.2149 2.87744 3.0101 2.85564 2.81302 2.89613C2.61593 2.93662 2.43632 3.0374 2.29905 3.1845C1.26702 4.29606 0.496562 5.62429 0.0440457 7.072C-0.0158169 7.26439 -0.0142808 7.47065 0.0484409 7.66213C0.111163 7.85361 0.231956 8.02081 0.394046 8.1405L1.63805 9.0585C1.86027 9.22274 2.01732 9.46023 2.08145 9.72902C2.14559 9.99781 2.11268 10.2806 1.98855 10.5275C1.90597 10.6912 1.78608 10.8332 1.63855 10.942L0.393546 11.8615C0.231655 11.9811 0.11099 12.1482 0.0482773 12.3394C-0.0144354 12.5307 -0.016089 12.7367 0.0435457 12.929C0.494807 14.3783 1.26539 15.7079 2.29855 16.82C2.43501 16.9672 2.61397 17.0681 2.8105 17.1088C3.00704 17.1495 3.21137 17.1279 3.39505 17.047L4.80405 16.4285C4.94955 16.3645 5.10655 16.3315 5.26555 16.3315H5.26955C5.5564 16.3321 5.83305 16.438 6.04691 16.6292C6.26077 16.8204 6.39694 17.0835 6.42955 17.3685L6.59855 18.897C6.62056 19.0955 6.7033 19.2824 6.83547 19.4321C6.96765 19.5818 7.14281 19.6871 7.33705 19.7335ZM9.59005 13.1245C8.76124 13.1245 7.96639 12.7953 7.38034 12.2092C6.79429 11.6232 6.46505 10.8283 6.46505 9.9995C6.46505 9.1707 6.79429 8.37584 7.38034 7.78979C7.96639 7.20374 8.76124 6.8745 9.59005 6.8745C10.4188 6.8745 11.2137 7.20374 11.7998 7.78979C12.3858 8.37584 12.715 9.1707 12.715 9.9995C12.715 10.8283 12.3858 11.6232 11.7998 12.2092C11.2137 12.7953 10.4188 13.1245 9.59005 13.1245Z" fill="#121212"/>
</svg>
