<svg width="16" height="16" viewBox="0 0 16 16" fill="none" xmlns="http://www.w3.org/2000/svg">
    <path d="M6.96776 1.45623C7.09858 1.31251 7.25797 1.1977 7.43572 1.11914C7.61347 1.04058 7.80566 1 8 1C8.19434 1 8.38653 1.04058 8.56428 1.11914C8.74203 1.1977 8.90142 1.31251 9.03224 1.45623L9.74412 2.23791C9.88234 2.38965 10.0523 2.50904 10.242 2.58757C10.4316 2.6661 10.6362 2.70185 10.8413 2.69226L11.8972 2.6434C12.0913 2.63426 12.2851 2.66572 12.4663 2.73577C12.6475 2.80582 12.812 2.91292 12.9495 3.05022C13.0869 3.18752 13.1942 3.35199 13.2644 3.53311C13.3346 3.71423 13.3663 3.90802 13.3573 4.10207L13.3077 5.15874C13.2982 5.36377 13.3339 5.56839 13.4124 5.75803C13.491 5.94767 13.6104 6.11766 13.7621 6.25588L14.5438 6.96776C14.6875 7.09858 14.8023 7.25797 14.8809 7.43572C14.9594 7.61347 15 7.80566 15 8C15 8.19434 14.9594 8.38653 14.8809 8.56428C14.8023 8.74203 14.6875 8.90142 14.5438 9.03224L13.7621 9.74412C13.6104 9.88234 13.491 10.0523 13.4124 10.242C13.3339 10.4316 13.2982 10.6362 13.3077 10.8413L13.3566 11.8972C13.3657 12.0913 13.3343 12.2851 13.2642 12.4663C13.1942 12.6475 13.0871 12.812 12.9498 12.9495C12.8125 13.0869 12.648 13.1942 12.4669 13.2644C12.2858 13.3346 12.092 13.3663 11.8979 13.3573L10.8413 13.3077C10.6362 13.2982 10.4316 13.3339 10.242 13.4124C10.0523 13.491 9.88234 13.6104 9.74412 13.7621L9.03224 14.5438C8.90142 14.6875 8.74203 14.8023 8.56428 14.8809C8.38653 14.9594 8.19434 15 8 15C7.80566 15 7.61347 14.9594 7.43572 14.8809C7.25797 14.8023 7.09858 14.6875 6.96776 14.5438L6.25588 13.7621C6.11766 13.6104 5.94767 13.491 5.75803 13.4124C5.56839 13.3339 5.36377 13.2982 5.15874 13.3077L4.10277 13.3566C3.90873 13.3657 3.71491 13.3343 3.53372 13.2642C3.35253 13.1942 3.18796 13.0871 3.05053 12.9498C2.9131 12.8125 2.80584 12.648 2.73562 12.4669C2.66539 12.2858 2.63375 12.092 2.6427 11.8979L2.69226 10.8413C2.70185 10.6362 2.6661 10.4316 2.58757 10.242C2.50904 10.0523 2.38965 9.88234 2.23791 9.74412L1.45623 9.03224C1.31251 8.90142 1.1977 8.74203 1.11914 8.56428C1.04058 8.38653 1 8.19434 1 8C1 7.80566 1.04058 7.61347 1.11914 7.43572C1.1977 7.25797 1.31251 7.09858 1.45623 6.96776L2.23791 6.25588C2.38965 6.11766 2.50904 5.94767 2.58757 5.75803C2.6661 5.56839 2.70185 5.36377 2.69226 5.15874L2.6434 4.10277C2.63426 3.90873 2.66572 3.71491 2.73577 3.53372C2.80582 3.35253 2.91292 3.18796 3.05022 3.05053C3.18752 2.9131 3.35199 2.80584 3.53311 2.73562C3.71423 2.66539 3.90802 2.63375 4.10207 2.6427L5.15874 2.69226C5.36377 2.70185 5.56839 2.6661 5.75803 2.58757C5.94767 2.50904 6.11766 2.38965 6.25588 2.23791L6.96776 1.45623Z" fill="#485FE6" stroke="#485FE6" stroke-width="1.5"/>
    <path d="M5.90621 8.00035L7.30207 9.3962L10.0938 6.60449" stroke="white" stroke-width="1.5" stroke-linecap="round" stroke-linejoin="round"/>
</svg>
