<svg width="24" height="20" viewBox="0 0 24 20" fill="none" xmlns="http://www.w3.org/2000/svg">
    <path d="M8.80534 5.89144e-07C7.91316 -0.000464147 7.04279 0.274032 6.31418 0.785657C5.58558 1.29728 5.03461 2.02085 4.73722 2.85664H0.180344V5.71329H4.73722C5.03421 6.54962 5.58497 7.27382 6.31358 7.78608C7.04219 8.29834 7.91278 8.57343 8.80534 8.57343C9.69791 8.57343 10.5685 8.29834 11.2971 7.78608C12.0257 7.27382 12.5765 6.54962 12.8735 5.71329H23.1803V2.85664H12.8735C12.5761 2.02085 12.0251 1.29728 11.2965 0.785657C10.5679 0.274032 9.69753 -0.000464147 8.80534 5.89144e-07ZM14.5553 11.4266C13.6632 11.4261 12.7928 11.7006 12.0642 12.2122C11.3356 12.7239 10.7846 13.4474 10.4872 14.2832H0.180344V17.1399H10.4872C10.7842 17.9762 11.335 18.7004 12.0636 19.2127C12.7922 19.7249 13.6628 20 14.5553 20C15.4479 20 16.3185 19.7249 17.0471 19.2127C17.7757 18.7004 18.3265 17.9762 18.6235 17.1399H23.1803V14.2832H18.6235C18.3261 13.4474 17.7751 12.7239 17.0465 12.2122C16.3179 11.7006 15.4475 11.4261 14.5553 11.4266Z" fill="#121212"/>
</svg>
