<svg width="21" height="18" viewBox="0 0 21 18" fill="none" xmlns="http://www.w3.org/2000/svg">
    <path d="M19.8538 2.5401C19.0182 0.825205 16.6111 -0.577889 13.8112 0.239024C12.5642 0.670551 11.4598 1.43634 10.6184 2.4528C9.9595 3.31537 9.43784 4.27455 9.07184 5.2964L13.1626 7.12978L9.6892 10.4099L11.1235 12.1186L10.1444 12.9542L7.89948 10.3226L10.8553 7.51017L7.46296 6.0073C7.76243 4.79728 8.24618 3.64051 8.89723 2.57751C9.09739 2.24397 9.31816 1.92323 9.55825 1.61717H9.59566C8.90415 0.981043 8.07342 0.515493 7.16987 0.257732C4.38239 -0.565417 1.98154 0.825205 1.14592 2.5401C-0.0264454 4.94095 0.459961 7.64113 2.59266 10.5658C4.26391 12.8544 6.65228 15.1742 10.1195 17.8681C10.2291 17.9536 10.364 18 10.503 18C10.642 18 10.7769 17.9536 10.8865 17.8681C14.3475 15.1804 16.7421 12.8793 18.4133 10.5658C20.5398 7.64113 21.0262 4.94095 19.8538 2.5401Z" fill="#121212"/>
</svg>
