<svg width="20" height="20" viewBox="0 0 20 20" fill="none" xmlns="http://www.w3.org/2000/svg">
    <path d="M19.969 8.39303V13.263C19.9669 15.0496 19.256 16.7624 17.9924 18.0255C16.7287 19.2886 15.0156 19.9987 13.229 20H6.73901C4.95304 19.9971 3.24099 19.2866 1.97774 18.0241C0.714493 16.7616 0.00298931 15.05 -0.000976562 13.264V6.77703C0.001142 4.99041 0.712021 3.2776 1.97564 2.01455C3.23926 0.751491 4.95238 0.041374 6.73901 0.0400508H11.601C11.7016 0.0363733 11.8019 0.0530111 11.8959 0.0889704C11.9899 0.12493 12.0757 0.179472 12.1482 0.24934C12.2207 0.319207 12.2783 0.402965 12.3177 0.49561C12.3571 0.588255 12.3774 0.687886 12.3774 0.788549C12.3774 0.889212 12.3571 0.988843 12.3177 1.08149C12.2783 1.17413 12.2207 1.25789 12.1482 1.32776C12.0757 1.39763 11.9899 1.45217 11.8959 1.48813C11.8019 1.52409 11.7016 1.54072 11.601 1.53705H6.73901C5.34917 1.53731 4.01631 2.0894 3.03336 3.07197C2.05041 4.05455 1.49781 5.3872 1.49702 6.77703V9.27203H3.99301C4.35262 9.27023 4.70901 9.33985 5.04151 9.47683C5.37402 9.61381 5.67602 9.81544 5.93001 10.07C6.44103 10.5898 6.73096 11.2872 6.73901 12.016C6.73887 12.1799 6.77106 12.3423 6.83374 12.4938C6.89641 12.6452 6.98833 12.7829 7.10424 12.8988C7.22016 13.0147 7.35779 13.1066 7.50926 13.1693C7.66073 13.232 7.82308 13.2641 7.987 13.264H11.981C12.1447 13.2644 12.3068 13.2318 12.4576 13.1683C12.6084 13.1047 12.7449 13.0114 12.859 12.894C13.093 12.661 13.226 12.346 13.229 12.016C13.2259 11.6546 13.2949 11.2962 13.4318 10.9617C13.5687 10.6272 13.7709 10.3233 14.0265 10.0678C14.2821 9.8123 14.5861 9.61024 14.9206 9.47344C15.2551 9.33664 15.6136 9.26783 15.975 9.27103H18.471V8.39303C18.4781 8.19925 18.56 8.01577 18.6996 7.88118C18.8392 7.7466 19.0256 7.67139 19.2195 7.67139C19.4134 7.67139 19.5997 7.7466 19.7393 7.88118C19.8789 8.01577 19.9619 8.19925 19.969 8.39303Z" fill="#8A8A8E"/>
    <path d="M16.9226 6.52707C16.7259 6.52444 16.5381 6.44451 16.3998 6.30454C16.2615 6.16458 16.1839 5.97582 16.1836 5.77907V0.78908C16.1825 0.691147 16.2007 0.593952 16.2374 0.50313C16.274 0.412308 16.3283 0.329666 16.3972 0.259994C16.466 0.190323 16.548 0.135009 16.6384 0.0972591C16.7287 0.0595092 16.8257 0.0400745 16.9236 0.0400817C17.0227 0.0390248 17.121 0.0576107 17.2129 0.0947655C17.3047 0.13192 17.3883 0.186908 17.4588 0.256551C17.5293 0.326194 17.5853 0.409112 17.6235 0.500516C17.6618 0.591919 17.6815 0.689996 17.6816 0.78908V5.77907C17.679 5.97854 17.5979 6.16893 17.4558 6.30895C17.3137 6.44898 17.1221 6.52735 16.9226 6.52707Z" fill="#8A8A8E"/>
    <path d="M19.7994 2.35499L17.8024 0.359999C17.6947 0.241402 17.5613 0.149041 17.4124 0.0899997C17.2666 0.0306522 17.1107 8.98598e-05 16.9534 0C16.8034 0.00199999 16.6534 0.0319998 16.5134 0.0899997C16.3689 0.156524 16.2372 0.247913 16.1244 0.359999L14.1274 2.35499C14.0579 2.42446 14.0028 2.50692 13.9652 2.59769C13.9276 2.68846 13.9082 2.78574 13.9082 2.88399C13.9082 2.98224 13.9276 3.07953 13.9652 3.17029C14.0028 3.26106 14.0579 3.34353 14.1274 3.41299C14.1963 3.4836 14.2787 3.5397 14.3696 3.57801C14.4605 3.61631 14.5582 3.63605 14.6569 3.63605C14.7555 3.63605 14.8532 3.61631 14.9442 3.57801C15.0351 3.5397 15.1174 3.4836 15.1864 3.41299L16.1844 2.41499L16.9344 1.667L18.6914 3.42299C18.7601 3.49353 18.8424 3.5494 18.9333 3.58722C19.0242 3.62503 19.1219 3.64401 19.2204 3.64299C19.3187 3.64332 19.4162 3.62404 19.507 3.58626C19.5978 3.54849 19.6802 3.49298 19.7494 3.42299C19.8237 3.35674 19.8841 3.27631 19.9269 3.18642C19.9698 3.09653 19.9943 2.99898 19.9989 2.89951C20.0036 2.80003 19.9883 2.70062 19.9541 2.60712C19.9198 2.51362 19.8672 2.4279 19.7994 2.35499Z" fill="#8A8A8E"/>
</svg>
