<svg width="116" height="31" viewBox="0 0 116 31" fill="none" xmlns="http://www.w3.org/2000/svg">
    <path d="M28.9323 7.11963L24.8489 24.4048H17.6732L14.6998 11.8374L11.7264 24.4048H4.5507L0.467285 7.11963H5.4229L8.39626 19.7267L11.3696 7.11963H18.03L21.0033 19.7267L24.0163 7.11963H28.9323Z" fill="white"/>
    <path d="M47.6942 24.4052H42.7782V15.4058C42.7782 12.8289 41.5492 11.0845 38.9723 11.0845C36.3954 11.0845 35.1664 12.8289 35.1664 15.4058V24.4052H30.2108V0.578613H35.1664V8.19042C36.4747 7.23895 38.0605 6.68392 39.8049 6.68392C44.8398 6.68392 47.6942 10.2123 47.6942 15.2472V24.4052Z" fill="white"/>
    <path d="M67.1598 15.7626C67.1598 20.7975 63.0764 24.8413 58.0415 24.8413C53.0066 24.8413 48.9628 20.7975 48.9628 15.7626C48.9628 10.7277 53.0462 6.68393 58.0415 6.68393C63.0367 6.68393 67.1598 10.7277 67.1598 15.7626ZM62.7196 15.7626C62.7196 13.1857 60.6184 11.0845 58.0415 11.0845C55.4646 11.0845 53.403 13.1857 53.403 15.7626C53.403 18.3395 55.4646 20.4407 58.0415 20.4407C60.6184 20.4407 62.7196 18.3395 62.7196 15.7626Z" fill="white"/>
    <path d="M75.0095 6.68393C78.5775 6.68393 81.7888 8.19043 82.7006 11.3224L78.4983 12.7099C78.0622 11.7981 77.0314 11.0449 75.3267 10.9656C73.8994 10.9259 72.9083 11.1638 72.829 11.8378C72.4722 14.0579 82.7006 12.9875 82.7006 19.6874C82.7006 23.0969 78.8947 24.8413 75.287 24.8413C71.6793 24.8413 68.1906 22.9383 67.6356 20.3614L71.7983 18.6567C72.274 19.7271 73.4237 20.5596 74.8113 20.7182C75.9213 20.8371 77.3089 20.5993 77.5071 19.8857C78.1811 17.4277 67.6356 18.8153 67.6356 11.8378C67.6356 8.30937 71.4018 6.68393 75.0095 6.68393Z" fill="white"/>
    <path d="M90.9467 6.68393C94.5147 6.68393 97.726 8.19043 98.6378 11.3224L94.4354 12.7099C93.9993 11.7981 92.9686 11.0449 91.2638 10.9656C89.8366 10.9259 88.8455 11.1638 88.7662 11.8378C88.4094 14.0579 98.6378 12.9875 98.6378 19.6874C98.6378 23.0969 94.8319 24.8413 91.2242 24.8413C87.6165 24.8413 84.1278 22.9383 83.5728 20.3614L87.7355 18.6567C88.2112 19.7271 89.3609 20.5596 90.7485 20.7182C91.8585 20.8371 93.2461 20.5993 93.4443 19.8857C94.1183 17.4277 83.5728 18.8153 83.5728 11.8378C83.5728 8.30937 87.339 6.68393 90.9467 6.68393Z" fill="white"/>
    <path d="M115.725 7.11963L108.866 30.3119H103.911L105.655 24.4048H103.435L98.3207 7.11963H103.276L107.003 19.806L110.769 7.11963H115.725Z" fill="white"/>
</svg>
