<svg width="82" height="22" viewBox="0 0 82 22" fill="none" xmlns="http://www.w3.org/2000/svg">
    <path d="M14.669 13.8897L12.5629 4.95972H7.84513L5.739 13.8897L3.63287 4.95972H0.12265L3.01507 17.2034H8.09787L10.204 8.30145L12.3101 17.2034H17.3929L20.2783 4.95972H16.8032L14.669 13.8897Z" fill="url(#paint0_linear_8060_3054)"/>
    <path d="M27.9798 4.65101C26.7442 4.65101 25.6209 5.04415 24.6942 5.71811V0.326416H21.184V17.2036H24.6942V10.829C24.6942 9.00368 25.5647 7.76808 27.39 7.76808C29.2154 7.76808 30.0859 9.00368 30.0859 10.829V17.2036H33.568V10.7167C33.568 7.15029 31.5461 4.65101 27.9798 4.65101Z" fill="url(#paint1_linear_8060_3054)"/>
    <path d="M40.8974 4.65112C37.3591 4.65112 34.4666 7.51546 34.4666 11.0818C34.4666 14.6482 37.3591 17.5126 40.8974 17.5126C44.4357 17.5126 47.3562 14.6482 47.3562 11.0818C47.3562 7.51546 44.4638 4.65112 40.8974 4.65112ZM40.8974 14.3955C39.0721 14.3955 37.6118 12.9072 37.6118 11.0818C37.6118 9.25653 39.0721 7.7682 40.8974 7.7682C42.7227 7.7682 44.211 9.25653 44.211 11.0818C44.211 12.9072 42.7227 14.3955 40.8974 14.3955Z" fill="url(#paint2_linear_8060_3054)"/>
    <path d="M53.141 7.68395C54.3485 7.74012 55.0787 8.27367 55.3876 8.91955L58.3642 7.93669C57.7183 5.71823 55.4437 4.65112 52.9164 4.65112C50.389 4.65112 47.6932 5.80247 47.6932 8.30175C47.6932 13.2441 55.1629 12.2613 54.6855 14.0023C54.5451 14.5078 53.5622 14.6763 52.776 14.5921C51.7931 14.4797 50.9787 13.89 50.6417 13.1318L47.6932 14.3393C48.0863 16.1646 50.6137 17.5126 53.1129 17.5126C55.6122 17.5126 58.3642 16.277 58.3642 13.8619C58.3642 9.11612 51.1191 9.87433 51.3719 8.30175C51.428 7.82436 52.1301 7.65587 53.141 7.68395Z" fill="url(#paint3_linear_8060_3054)"/>
    <path d="M64.4299 7.68395C65.6374 7.74012 66.3675 8.27367 66.6764 8.91955L69.6531 7.93669C69.0072 5.71823 66.7326 4.65112 64.2052 4.65112C61.6779 4.65112 58.982 5.80247 58.982 8.30175C58.982 13.2441 66.4518 12.2613 65.9744 14.0023C65.834 14.5078 64.8511 14.6763 64.0648 14.5921C63.082 14.4797 62.2676 13.89 61.9306 13.1318L58.982 14.3393C59.3752 16.1646 61.9025 17.5126 64.4018 17.5126C66.9011 17.5126 69.6531 16.277 69.6531 13.8619C69.6531 9.11612 62.408 9.87433 62.6607 8.30175C62.7169 7.82436 63.4189 7.65587 64.4299 7.68395Z" fill="url(#paint4_linear_8060_3054)"/>
    <path d="M78.2463 4.95972L75.5785 13.9459L72.9388 4.95972H69.4286L73.0511 17.2034H74.6237L73.3881 21.3875H76.8983L81.7565 4.95972H78.2463Z" fill="url(#paint5_linear_8060_3054)"/>
    <defs>
        <linearGradient id="paint0_linear_8060_3054" x1="0.12265" y1="10.8569" x2="81.7563" y2="10.8569" gradientUnits="userSpaceOnUse">
            <stop stop-color="#FF5C00"/>
            <stop offset="1" stop-color="#F0174B"/>
        </linearGradient>
        <linearGradient id="paint1_linear_8060_3054" x1="0.122646" y1="10.8571" x2="81.7563" y2="10.8571" gradientUnits="userSpaceOnUse">
            <stop stop-color="#FF5C00"/>
            <stop offset="1" stop-color="#F0174B"/>
        </linearGradient>
        <linearGradient id="paint2_linear_8060_3054" x1="0.122649" y1="10.8572" x2="81.7563" y2="10.8572" gradientUnits="userSpaceOnUse">
            <stop stop-color="#FF5C00"/>
            <stop offset="1" stop-color="#F0174B"/>
        </linearGradient>
        <linearGradient id="paint3_linear_8060_3054" x1="0.122655" y1="10.8572" x2="81.7563" y2="10.8572" gradientUnits="userSpaceOnUse">
            <stop stop-color="#FF5C00"/>
            <stop offset="1" stop-color="#F0174B"/>
        </linearGradient>
        <linearGradient id="paint4_linear_8060_3054" x1="0.122661" y1="10.8572" x2="81.7563" y2="10.8572" gradientUnits="userSpaceOnUse">
            <stop stop-color="#FF5C00"/>
            <stop offset="1" stop-color="#F0174B"/>
        </linearGradient>
        <linearGradient id="paint5_linear_8060_3054" x1="0.12281" y1="10.8569" x2="81.7565" y2="10.8569" gradientUnits="userSpaceOnUse">
            <stop stop-color="#FF5C00"/>
            <stop offset="1" stop-color="#F0174B"/>
        </linearGradient>
    </defs>
</svg>
